<?xml version='1.0' encoding='UTF-8'?>
<svg x="0px" y="0px" viewBox="0 0 32 32" version="1.1" xmlns="http://www.w3.org/2000/svg" xmlns:xlink="http://www.w3.org/1999/xlink" xml:space="preserve" id="Layer_1" style="enable-background:new 0 0 32 32">
  <style type="text/css">
	.Black{fill:#727272;}
</style>
  <g id="PhoneIphone">
    <path d="M22,4H10C8.9,4,8,4.9,8,6v20c0,1.1,0.9,2,2,2h12c1.1,0,2-0.9,2-2V6C24,4.9,23.1,4,22,4z M16,26   c-1.1,0-2-0.9-2-2c0-1.1,0.9-2,2-2s2,0.9,2,2C18,25.1,17.1,26,16,26z M22,20H10V8h12V20z" class="Black" />
  </g>
</svg>